{"title":"Hate Story 2 (2014) 720p DVDRip x.264 AC3 5.1 E.Sub TeamTNT","uid":11036725,"size":2426953495,"categoryP":"video","categoryS":"hd___movies","magnet":"?xt=urn:btih:884c14c6fa5a3c04c6770d0b4d627895c453accd&amp;dn=Hate+Story+2+%282014%29+720p+DVDRip+x.264+AC3+5.1+E.Sub+TeamTNT&amp;tr=udp%3A%2F%2Ftracker.openbittorrent.com%3A80&amp;tr=udp%3A%2F%2Fopen.demonii.com%3A1337&amp;tr=udp%3A%2F%2Ftracker.coppersurfer.tk%3A6969&amp;tr=udp%3A%2F%2Fexodus.desync.com%3A6969","seeders":2,"leechers":2,"uploader":"inovai","files":19,"time":1410801715,"description":"Hate Story 2 (2014) 720p DVDRip x.264 AC3 5.1 E.Sub TeamTNT\n\nCover:\n &lt;a href=&quot;\nhttp://forum.primetimeshow.in/viewtopic.php?f=7&amp;t=683&quot; rel=&quot;nofollow&quot; target=&quot;_NEW&quot;&gt;\nhttp://forum.primetimeshow.in/viewtopic.php?f=7&amp;t=683&lt;/a&gt;\n\nScreenshots:\n &lt;a href=&quot;\nhttp://m.primetimeshow.in/share-C6BD_5416FD2D.html&quot; rel=&quot;nofollow&quot; target=&quot;_NEW&quot;&gt;\nhttp://m.primetimeshow.in/share-C6BD_5416FD2D.html&lt;/a&gt;\n &lt;a href=&quot;\nhttp://m.primetimeshow.in/share-020A_5416FD2D.html&quot; rel=&quot;nofollow&quot; target=&quot;_NEW&quot;&gt;\nhttp://m.primetimeshow.in/share-020A_5416FD2D.html&lt;/a&gt;\n &lt;a href=&quot;\nhttp://m.primetimeshow.in/share-A69D_5416FD2D.html&quot; rel=&quot;nofollow&quot; target=&quot;_NEW&quot;&gt;\nhttp://m.primetimeshow.in/share-A69D_5416FD2D.html&lt;/a&gt;\n &lt;a href=&quot;\nhttp://m.primetimeshow.in/share-B074_5416FD2D.html&quot; rel=&quot;nofollow&quot; target=&quot;_NEW&quot;&gt;\nhttp://m.primetimeshow.in/share-B074_5416FD2D.html&lt;/a&gt;\n &lt;a href=&quot;\nhttp://m.primetimeshow.in/share-8314_5416FD2D.html&quot; rel=&quot;nofollow&quot; target=&quot;_NEW&quot;&gt;\nhttp://m.primetimeshow.in/share-8314_5416FD2D.html&lt;/a&gt;\n\nMovie:............Hate Story 2 \nSource: ..........DVD9 @ TeamTNT\nYear:.............2014\nQuote:\nGeneral\nUnique ID : 217419300638624241836721869447127765187 (0xA3916F25076414DD810191D8D97210C3)\nComplete name : E:Hate Story 2.mkv\nFormat : Matroska\nFormat version : Version 2\nFile size : 2.20 GiB\nDuration : 2h 13mn\nOverall bit rate : 2 353 Kbps\nEncoded date : UTC 2014-09-15 12:33:35\nWriting application : mkvmerge v7.0.0 ('Where We Going') 32bit built on Jun 9 2014 15:08:34\nWriting library : libebml v1.3.0 + libmatroska v1.4.1\n_STATISTICS_WRITING_APP : mkvmerge v7.0.0 ('Where We Going') 32bit built on Jun 9 2014 15:08:34\n_STATISTICS_WRITING_DATE_UTC : 2014-09-15 12:33:35\n_STATISTICS_TAGS : BPS DURATION NUMBER_OF_FRAMES NUMBER_OF_BYTES\nDURATION : 01:59:24.712000000\nNUMBER_OF_FRAMES : 1496\nNUMBER_OF_BYTES : 41681\n\nVideo\nID : 1\nFormat : AVC\nFormat/Info : Advanced Video Codec\nFormat profile : &lt;a class=&quot;__cf_email__&quot; href=&quot;/cdn-cgi/l/email-protection&quot; data-cfemail=&quot;f3bb9a949bb3bfc7ddc2&quot;&gt;[email&amp;#160;protected]&lt;/a&gt;&lt;script cf-hash='f9e31' type=&quot;text/javascript&quot;&gt;\n/* &lt;![CDATA[ */!function(){try{var t=&quot;currentScript&quot;in document?document.currentScript:function(){for(var t=document.getElementsByTagName(&quot;script&quot;),e=t.length;e--;)if(t[e].getAttribute(&quot;cf-hash&quot;))return t[e]}();if(t&amp;&amp;t.previousSibling){var e,r,n,i,c=t.previousSibling,a=c.getAttribute(&quot;data-cfemail&quot;);if(a){for(e=&quot;&quot;,r=parseInt(a.substr(0,2),16),n=2;a.length-n;n+=2)i=parseInt(a.substr(n,2),16)^r,e+=String.fromCharCode(i);e=document.createTextNode(e),c.parentNode.replaceChild(e,c)}}}catch(u){}}();/* ]]&gt; */&lt;/script&gt;\nFormat settings, CABAC : Yes\nFormat settings, ReFrames : 4 frames\nCodec ID : V_MPEG4/ISO/AVC\nDuration : 2h 13mn\nBit rate : 1 903 Kbps\nWidth : 1 280 pixels\nHeight : 544 pixels\nDisplay aspect ratio : 2.35:1\nFrame rate : 29.970 fps\nColor space : YUV\nChroma subsampling : 4:2:0\nBit depth : 8 bits\nScan type : Progressive\nBits/(Pixel*Frame) : 0.091\nStream size : 1.74 GiB (79%)\nWriting library : x264 core 142 r2431 ac76440\n\nAudio\nID : 2\nFormat : AC-3\nFormat/Info : Audio Coding 3\nMode extension : CM (complete main)\nCodec ID : A_AC3\nDuration : 2h 13mn\nBit rate mode : Constant\nBit rate : 448 Kbps\nChannel(s) : 6 channels\nChannel positions : Front: L C R, Side: L R, LFE\nSampling rate : 48.0 KHz\nBit depth : 16 bits\nCompression mode : Lossy\nStream size : 428 MiB (19%)\n\nText\nID : 3\nFormat : UTF-8\nCodec ID : S_TEXT/UTF8\nCodec ID/Info : UTF-8 Plain Text\n\nSample included in torrent!\n\nThanks to TeamTNT!!\n\nSeed n Enjoy!!","torrent":{"xt":"urn:btih:884c14c6fa5a3c04c6770d0b4d627895c453accd","amp;dn":"Hate+Story+2+%282014%29+720p+DVDRip+x.264+AC3+5.1+E.Sub+TeamTNT","amp;tr":["udp%3A%2F%2Ftracker.openbittorrent.com%3A80","udp%3A%2F%2Fopen.demonii.com%3A1337","udp%3A%2F%2Ftracker.coppersurfer.tk%3A6969","udp%3A%2F%2Fexodus.desync.com%3A6969"],"infoHash":"884c14c6fa5a3c04c6770d0b4d627895c453accd","infoHashBuffer":{"type":"Buffer","data":[136,76,20,198,250,90,60,4,198,119,13,11,77,98,120,149,196,83,172,205]},"announce":[],"urlList":[]}}